<svg xmlns="http://www.w3.org/2000/svg" width="1200" height="775" viewBox="0 0 1200 775">
<defs>
  </defs>
  <path class="cls-1" d="M0,0H1200V350h-1c-1.91-3.885-7.2-3.3-13-3-5.09-9.437-7.76-15.327-23-15l-3,5c-4.78-2.748-21.72-16.536-24-1,2.42,2.177,4.26,4.019,5,8a2.909,2.909,0,0,0-1,1l-6,1c-3.81-6.43-7.26-10.191-18-10-0.55.884-6,14-6,14h-10c-11.7,4.7-36.83,17.668-43,27-2.71,4.1.27,9.539-2,15-0.47,1.121-3.54,2.528-4,4-1.89,6.025,3.3,8.548,2,12-3.16,1.992-7.94.594-12,2-4.61,1.6-12.64,5.046-17,8q-5,5.5-10,11c-2.24,1.656-5.2,2-7,4-5.87,6.5-6.28,22.719-15,26-4.3,2.624-12.482-.942-18,1-3.071,1.081-4.442,5.613-7,7-5.367,2.911-14.653-1.53-21,1-4.062,1.619-4.156,4.568-11,5-7.927-12-14.648-.986-21,1-3.828,1.2-9.932-4.058-16-2-6.19,2.1-7.8,5.7-18,6-0.49-7.157-5.925-12.241-10-16v-6c-13.035-1.307-11.518-1.035-22,4h-4c-1,.49-2.986,3.611-4,4-3.8,1.455-6.919-2.344-12,0-2.819,1.3-4.975,5.955-8,7-4.911,1.7-8.139-2.881-12,0-2.817,2.1-6.839,26.8-6,31H788c-6.129-4.376-24.292-2.139-34-2-0.631-1.754-.193-0.971-1-2,2.882-11.414,11.246-14.36,16-23,6.3-11.45,8.663-25.834,12-40,2.8-11.893-1.92-26.876-4-35V390c-3.713-15.983-4.418-37.106-9-52-1.383-4.5,1.333-9.244,2-12,2.207-9.127,2.318-31.221,0-40-15.35-58.126-33.81-101.47-80-129l-10-2c-7.5-3.826-10.9-14.147-20-17-25.368-7.95-50.959,2.91-65,13-3.68,2.644-6.674,6.978-10,10-6.036,5.483-13.957,8.5-20,14-3.454,3.141-4.833,8.531-8,12-1.5,1.643-4.526,2.341-6,4-8.9,10.017-12.979,24.1-22,34-5.339,5.858-12.382,10.387-18,16s-10.15,12.643-16,18c-2.879,2.636-7.065,3.386-10,6-4.484,3.994-7.568,9.941-12,14-3.456,3.165-8.886,4.538-12,8-2.919,3.245-3.112,8.723-6,12-4.761,5.4-12.676,9.251-16,16-2.235,4.538-.42,8.142-2,12-8.912,1.173-18.152,7.7-29,5-8.025-1.994-13.992-6.613-24-7-2.939,4.062-7.754,6.334-11,10-6.566,7.415-7.106,17.643-12,27-2.164,4.137-12.5,12.912-16,17-7.031,8.21-11.684,18.255-18,27-10.128,14.023-24.759,25.3-35,39h-1v-1c-3.424-5.5-1.227-16.055-3-23-1.573-6.163-9.309-35.945-8-41,3.354-12.955,6.816-18.193,3-35l-6-5-13,1c-8.125-2.772-5.266-7.97-21-8-1.708,2.725-2.536,2.5-3,7-1.174,2.163-.131,10.88,0,16-12.322-.56-24.386-19.267-33-9-4.789,6.133-.019,17.126,3,22,8.743,14.115,23.981,23.3,26,44h-2c-6.7-7.553-22.665-13.337-30-21-19.06-.036-15.347,6.375-26,10H162c-3.9,1.126-6.917,5.542-10,7-7.05,3.334-14.912-2.608-22-4a75.254,75.254,0,0,0-14-21H84c-2.234.74-4.251,4.142-6,5l-10,2c-3.225,2.33-5.125,8.125-8,11v10c-9.125-.172-14.939-5.549-22-7-3.777-.776-4.218,2.351-6,3-5.6,2.039-12.662-1.136-16-2-1.645-3.009-3.3-7.811-5-11-1.754.631-.971,0.193-2,1-4.039,1.628-5.1,6.44-7,10H0V0Z"/>
</svg>
